{
	"asset":{
		"generator":"Khronos glTF Blender I/O v5.2.39",
		"version":"2.0"
	},
	"scene":0,
	"scenes":[
		{
			"name":"Scene",
			"nodes":[
				0
			]
		}
	],
	"nodes":[
		{
			"mesh":0,
			"name":"Bobby"
		}
	],
	"materials":[
		{
			"doubleSided":true,
			"name":"Material",
			"pbrMetallicRoughness":{
				"baseColorTexture":{
					"index":0
				},
				"metallicFactor":0
			}
		},
		{
			"name":"Outline"
		}
	],
	"meshes":[
		{
			"name":"Bobby",
			"primitives":[
				{
					"attributes":{
						"POSITION":0,
						"NORMAL":1,
						"TEXCOORD_0":2
					},
					"indices":3,
					"material":0
				},
				{
					"attributes":{
						"POSITION":4,
						"NORMAL":5,
						"TEXCOORD_0":6
					},
					"indices":7,
					"material":1
				}
			]
		}
	],
	"textures":[
		{
			"sampler":0,
			"source":0
		}
	],
	"images":[
		{
			"mimeType":"image/png",
			"name":"Bobby",
			"uri":"Bobby.png"
		}
	],
	"accessors":[
		{
			"bufferView":0,
			"componentType":5126,
			"count":550,
			"max":[
				0.9082245826721191,
				1.7248107194900513,
				0.8636590242385864
			],
			"min":[
				-0.9640525579452515,
				0.033976759761571884,
				-0.8636590242385864
			],
			"type":"VEC3"
		},
		{
			"bufferView":1,
			"componentType":5126,
			"count":550,
			"type":"VEC3"
		},
		{
			"bufferView":2,
			"componentType":5126,
			"count":550,
			"type":"VEC2"
		},
		{
			"bufferView":3,
			"componentType":5123,
			"count":1872,
			"type":"SCALAR"
		},
		{
			"bufferView":4,
			"componentType":5126,
			"count":550,
			"max":[
				0.938025712966919,
				1.7534602880477905,
				0.8935338258743286
			],
			"min":[
				-0.993740975856781,
				0.0039800307713449,
				-0.8935338258743286
			],
			"type":"VEC3"
		},
		{
			"bufferView":5,
			"componentType":5126,
			"count":550,
			"type":"VEC3"
		},
		{
			"bufferView":6,
			"componentType":5126,
			"count":550,
			"type":"VEC2"
		},
		{
			"bufferView":7,
			"componentType":5123,
			"count":1872,
			"type":"SCALAR"
		}
	],
	"bufferViews":[
		{
			"buffer":0,
			"byteLength":6600,
			"byteOffset":0,
			"target":34962
		},
		{
			"buffer":0,
			"byteLength":6600,
			"byteOffset":6600,
			"target":34962
		},
		{
			"buffer":0,
			"byteLength":4400,
			"byteOffset":13200,
			"target":34962
		},
		{
			"buffer":0,
			"byteLength":3744,
			"byteOffset":17600,
			"target":34963
		},
		{
			"buffer":0,
			"byteLength":6600,
			"byteOffset":21344,
			"target":34962
		},
		{
			"buffer":0,
			"byteLength":6600,
			"byteOffset":27944,
			"target":34962
		},
		{
			"buffer":0,
			"byteLength":4400,
			"byteOffset":34544,
			"target":34962
		},
		{
			"buffer":0,
			"byteLength":3744,
			"byteOffset":38944,
			"target":34963
		}
	],
	"samplers":[
		{
			"magFilter":9729,
			"minFilter":9987
		}
	],
	"buffers":[
		{
			"byteLength":42688,
			"uri":"bobby.bin"
		}
	]
}
