<svg xmlns="http://www.w3.org/2000/svg" viewBox="0 0 24 24">
  <circle cx="12" cy="12" r="10" fill="#0a2a6e" stroke="#00d4ff" stroke-width="1"/>
  <path d="M12 5.5c-3.5 0-6.2 2.7-6.2 6.2 0 2.8 1.8 5.1 4.3 5.9 0-.4 0-.9 0-1.3-1.7.4-2.1-.7-2.1-.7-.3-.7-.7-.9-.7-.9-.6-.4 0-.4 0-.4.6 0 1 .6 1 .6.6 1 1.6.7 2 .5.1-.4.2-.7.4-.9-1.4-.2-2.8-.7-2.8-3.1 0-.7.2-1.2.6-1.7-.1-.2-.3-.8 0-1.6 0 0 .5-.2 1.6.6.5-.1 1-.2 1.5-.2s1 .1 1.5.2c1.1-.8 1.6-.6 1.6-.6.3.8.1 1.4 0 1.6.4.5.6 1 .6 1.7 0 2.4-1.4 2.9-2.8 3.1.2.2.4.6.4 1.2 0 .9 0 1.6 0 1.9 2.5-.8 4.3-3.1 4.3-5.9 0-3.5-2.7-6.2-6.2-6.2z" fill="#5fe8ff"/>
</svg>
